<svg width="20" height="40" viewBox="0 0 20 40" fill="none" xmlns="http://www.w3.org/2000/svg">
<path fill-rule="evenodd" clip-rule="evenodd" d="M0.419589 0.451959C0.552257 0.308704 0.709861 0.195047 0.883374 0.117498C1.05689 0.0399485 1.2429 3.05176e-05 1.43076 3.05176e-05C1.61862 3.05176e-05 1.80463 0.0399485 1.97814 0.117498C2.15166 0.195047 2.30926 0.308704 2.44193 0.451959L19.5804 18.9113C19.7134 19.0542 19.8189 19.224 19.8909 19.4109C19.9629 19.5977 20 19.7981 20 20.0004C20 20.2028 19.9629 20.4031 19.8909 20.59C19.8189 20.7769 19.7134 20.9466 19.5804 21.0895L2.44193 39.5489C2.17375 39.8378 1.81002 40 1.43076 40C1.0515 40 0.687768 39.8378 0.419589 39.5489C0.15141 39.2601 0.000747762 38.8683 0.000747762 38.4598C0.000747762 38.0513 0.15141 37.6595 0.419589 37.3707L16.5498 20.0004L0.419589 2.63016C0.286585 2.48727 0.18106 2.31752 0.10906 2.13063C0.0370602 1.94375 0 1.7434 0 1.54106C0 1.33872 0.0370602 1.13838 0.10906 0.951489C0.18106 0.764603 0.286585 0.594852 0.419589 0.451959Z" fill="black"/>
</svg>
