<svg width="20" height="40" viewBox="0 0 20 40" fill="none" xmlns="http://www.w3.org/2000/svg">
<path fill-rule="evenodd" clip-rule="evenodd" d="M19.5804 0.451959C19.7134 0.594852 19.8189 0.764603 19.8909 0.951489C19.9629 1.13838 20 1.33872 20 1.54106C20 1.7434 19.9629 1.94375 19.8909 2.13063C19.8189 2.31752 19.7134 2.48727 19.5804 2.63016L3.45024 20.0004L19.5804 37.3707C19.8486 37.6595 19.9993 38.0513 19.9993 38.4598C19.9993 38.8683 19.8486 39.2601 19.5804 39.5489C19.3122 39.8378 18.9485 40 18.5692 40C18.19 40 17.8263 39.8378 17.5581 39.5489L0.419589 21.0895C0.286585 20.9466 0.18106 20.7769 0.10906 20.59C0.0370602 20.4031 0 20.2028 0 20.0004C0 19.7981 0.0370602 19.5977 0.10906 19.4109C0.18106 19.224 0.286585 19.0542 0.419589 18.9113L17.5581 0.451959C17.6907 0.308704 17.8483 0.195047 18.0219 0.117498C18.1954 0.0399485 18.3814 3.05176e-05 18.5692 3.05176e-05C18.7571 3.05176e-05 18.9431 0.0399485 19.1166 0.117498C19.2901 0.195047 19.4477 0.308704 19.5804 0.451959Z" fill="black"/>
</svg>
